Coordinates
version=1
nRows=12
nColumns=24
inDegrees=yes

Units are S.I. units (second, meters, Newtons, ...)
Angles are in degrees.

endheader
time	pelvis_tilt	pelvis_list	pelvis_rotation	pelvis_tx	pelvis_ty	pelvis_tz	hip_flexion_r	hip_adduction_r	hip_rotation_r	knee_angle_r	ankle_angle_r	subtalar_angle_r	mtp_angle_r	hip_flexion_l	hip_adduction_l	hip_rotation_l	knee_angle_l	ankle_angle_l	subtalar_angle_l	mtp_angle_l	lumbar_extension	lumbar_bending	lumbar_rotation
      0.55000000	      4.56613475	      1.96324268	      7.44068558	     -0.91529778	      1.02137844	      0.29939433	     17.21873998	     -1.52081878	    -11.84879669	      3.71910803	      4.17103279	      0.28369754	      3.15467617	    -17.78020980	      5.58074568	     12.37974423	     -9.81167087	     14.17726476	     -9.81719101	     -4.48315305	     -8.43308988	     -4.10041848	     -4.89656912
      0.55416667	      4.61928241	      1.78008177	      7.55103721	     -0.90957595	      1.02104026	      0.29925519	     17.22405683	     -1.29537688	    -11.83632125	      3.02967990	      4.32354271	      0.30707053	      3.17231600	    -17.96139412	      5.34553100	     12.33277356	    -10.21427669	     14.30148703	     -9.67045647	     -4.49892126	     -8.42274343	     -3.84134743	     -4.92561244
      0.55833333	      4.66392701	      1.62943939	      7.69017657	     -0.90387773	      1.02072788	      0.29909319	     17.21216445	     -1.10834210	    -11.75071423	      2.36300350	      4.37068986	      0.11776219	      3.18596550	    -18.11166220	      5.14207143	     12.33239326	    -10.66112584	     14.32765516	     -9.65068037	     -4.50470274	     -8.39455783	     -3.62317583	     -4.98405092
      0.56250000	      4.70284249	      1.46025569	      7.80596675	     -0.89808978	      1.02040199	      0.29899475	     17.19106571	     -0.88792378	    -11.56902794	      1.71790154	      4.29901643	     -0.22955746	      3.23373299	    -18.23745033	      4.91700648	     12.22096514	    -11.14890213	     14.43447663	     -9.41919195	     -4.51106206	     -8.38169168	     -3.39359646	     -5.17327275
      0.56666667	      4.74975940	      1.29546368	      7.93680033	     -0.89223253	      1.02013489	      0.29885194	     17.15337306	     -0.67787535	    -11.43759973	      1.06002667	      4.28146829	     -0.50064706	      3.25816370	    -18.38926175	      4.69721852	     12.22359562	    -11.60322153	     14.42994501	     -9.39325427	     -4.51063789	     -8.32637333	     -3.15681995	     -5.20853275
      0.57083333	      4.80196007	      1.11400915	      8.03214421	     -0.88628485	      1.01986569	      0.29881803	     17.07790750	     -0.42147744	    -11.13287231	      0.48079942	      4.05317972	     -1.07843744	      3.32488729	    -18.53709698	      4.45883638	     12.13023984	    -12.07960028	     14.47306206	     -9.18771692	     -4.49410376	     -8.30796645	     -2.91212055	     -5.35894333
      0.57500000	      4.35371231	      0.84073626	      7.83088633	     -0.87936578	      1.01889163	      0.29890910	     17.56178813	     -0.06997098	    -10.56603412	     -0.16379645	      3.83682461	     -1.61475923	      3.43898585	    -18.24163309	      4.30081071	     11.75033552	    -12.45499689	     14.39025637	     -9.10856868	     -4.45491715	     -7.51048996	     -2.63487172	     -5.09678863
      0.57916667	      4.38970659	      0.69916997	      7.97608224	     -0.87352966	      1.01869785	      0.29885082	     17.49442893	      0.13129805	    -10.29874525	     -0.72411413	      3.50837078	     -2.21943229	      3.52008755	    -18.32397763	      4.09510284	     11.72502691	    -13.01519456	     14.35169954	     -8.97769149	     -4.40725900	     -7.47527250	     -2.44437195	     -5.27837168
      0.58333333	      4.41218657	      0.56701689	      8.09677695	     -0.86760301	      1.01850096	      0.29887774	     17.42467319	      0.33785871	     -9.96094545	     -1.24461202	      3.12332748	     -2.92165810	      3.63193095	    -18.38515667	      3.90056163	     11.64473269	    -13.59416454	     14.27927593	     -8.83561070	     -4.33082234	     -7.40397528	     -2.28841175	     -5.39326856
      0.58750000	      4.41479758	      0.42579659	      8.20957484	     -0.86159881	      1.01829905	      0.29893916	     17.36373514	      0.55895324	     -9.60410590	     -1.73196501	      2.67399412	     -3.66772219	      3.76022956	    -18.42207770	      3.69746367	     11.55923127	    -14.17576359	     14.18112262	     -8.67162204	     -4.22623590	     -7.29632982	     -2.11825044	     -5.49592148
      0.59166667	      4.46904017	      0.27898186	      8.31584171	     -0.85554059	      1.01819461	      0.29904124	     17.22741656	      0.80292451	     -9.23196483	     -2.16571048	      2.15023960	     -4.46498102	      3.90621920	    -18.50991996	      3.47577970	     11.44500948	    -14.76504035	     14.04773086	     -8.48539527	     -4.08855940	     -7.24269797	     -1.93307517	     -5.58656517
      0.59583333	      4.44413597	      0.12922676	      8.41478761	     -0.84939748	      1.01800180	      0.29916962	     17.17421921	      1.04086909	     -8.86519096	     -2.58966559	      1.56285957	     -5.22807360	      4.03827015	    -18.50888636	      3.26349061	     11.35075331	    -15.36156055	     13.85612371	     -8.29762625	     -3.94737465	     -7.07783326	     -1.74839794	     -5.67172637
